<svg width="24" height="24" viewBox="0 0 24 24" fill="none" xmlns="http://www.w3.org/2000/svg">
<path fill-rule="evenodd" clip-rule="evenodd" d="M17.3445 5.32627C15.7248 4.02917 13.6887 3.36537 11.6157 3.45865C9.54272 3.55192 7.57441 4.3959 6.07774 5.83323C4.58107 7.27056 3.6582 9.20314 3.48118 11.2706C3.30417 13.3382 3.8851 15.3995 5.11565 17.0703C5.3531 17.3927 5.28423 17.8466 4.96183 18.084C4.63943 18.3215 4.18558 18.2526 3.94813 17.9302C2.50888 15.976 1.82943 13.5651 2.03647 11.147C2.2435 8.72881 3.32288 6.46849 5.07337 4.7874C6.82386 3.10631 9.12598 2.1192 11.5505 2.01011C13.9751 1.90102 16.3565 2.67739 18.2509 4.19447C20.1453 5.71156 21.4233 7.86581 21.8467 10.2556C22.2701 12.6454 21.8099 15.1075 20.552 17.1831C19.294 19.2586 17.3242 20.8059 15.0097 21.5363C12.6953 22.2668 10.1942 22.1306 7.97271 21.1532C7.60621 20.9919 7.43983 20.5641 7.60108 20.1976C7.76234 19.8311 8.19017 19.6647 8.55667 19.826C10.456 20.6617 12.5945 20.7781 14.5733 20.1536C16.5522 19.529 18.2364 18.2061 19.3119 16.4315C20.3875 14.657 20.7809 12.5518 20.4189 10.5085C20.0569 8.46527 18.9642 6.62338 17.3445 5.32627ZM10 16.25C9.5858 16.25 9.25002 15.9142 9.25002 15.5V8C9.25002 7.58579 9.5858 7.25 10 7.25C10.4142 7.25 10.75 7.58579 10.75 8V15.5C10.75 15.9142 10.4142 16.25 10 16.25ZM13.25 15.5C13.25 15.9142 13.5858 16.25 14 16.25C14.4142 16.25 14.75 15.9142 14.75 15.5V8C14.75 7.58579 14.4142 7.25 14 7.25C13.5858 7.25 13.25 7.58579 13.25 8V15.5Z" fill="#200E32"/>
</svg>
